HIERARCHY
ROOT Hips
{
	OFFSET 0.000000 0.000000 0.000000
	CHANNELS 6 Xposition Yposition Zposition Zrotation Yrotation Xrotation 
	JOINT Spine1
	{
		OFFSET -0.013727 5.003763 -0.053727
		CHANNELS 3 Zrotation Yrotation Xrotation
		JOINT Spine2
		{
			OFFSET -0.000000 7.125302 -0.029825
			CHANNELS 3 Zrotation Yrotation Xrotation
			JOINT Chest
			{
				OFFSET -0.000001 7.550064 -0.815971
				CHANNELS 3 Zrotation Yrotation Xrotation
				JOINT Neck1
				{
					OFFSET -0.181677 26.311296 -0.553348
					CHANNELS 3 Zrotation Yrotation Xrotation
					JOINT Neck2
					{
						OFFSET -0.000003 7.709398 2.302586
						CHANNELS 3 Zrotation Yrotation Xrotation
						JOINT Head
						{
							OFFSET -0.000005 6.128913 1.953708
							CHANNELS 3 Zrotation Yrotation Xrotation
							JOINT HeadEnd
							{
								OFFSET 0.003598 16.065399 -1.835379
								CHANNELS 3 Zrotation Yrotation Xrotation
								End Site
								{
									OFFSET 0.000000 0.000000 0.000000
								}
							}
							JOINT Jaw
							{
								OFFSET 0.002637 0.475591 3.094940
								CHANNELS 3 Zrotation Yrotation Xrotation
								End Site
								{
									OFFSET 0.000000 0.000000 0.000000
								}
							}
							JOINT LeftEye
							{
								OFFSET 3.206380 5.380207 7.586883
								CHANNELS 3 Zrotation Yrotation Xrotation
								End Site
								{
									OFFSET 0.000000 0.000000 0.000000
								}
							}
							JOINT RightEye
							{
								OFFSET -3.222440 5.361866 7.558233
								CHANNELS 3 Zrotation Yrotation Xrotation
								End Site
								{
									OFFSET 0.000000 0.000000 0.000000
								}
							}
						}
					}
				}
				JOINT LeftShoulder
				{
					OFFSET 1.621652 23.237164 5.113413
					CHANNELS 3 Zrotation Yrotation Xrotation
					JOINT LeftArm
					{
						OFFSET 14.919845 -0.000000 -5.502326
						CHANNELS 3 Zrotation Yrotation Xrotation
						JOINT LeftForeArm
						{
							OFFSET 28.739309 0.000003 -0.002588
							CHANNELS 3 Zrotation Yrotation Xrotation
							JOINT LeftHand
							{
								OFFSET 27.093979 -0.000003 0.002608
								CHANNELS 3 Zrotation Yrotation Xrotation
								JOINT LeftHandThumb1
								{
									OFFSET 2.276480 -1.392046 3.191413
									CHANNELS 3 Zrotation Yrotation Xrotation
									JOINT LeftHandThumb2
									{
										OFFSET 4.012841 -1.828125 1.641656
										CHANNELS 3 Zrotation Yrotation Xrotation
										JOINT LeftHandThumb3
										{
											OFFSET 2.798517 0.000001 -0.000003
											CHANNELS 3 Zrotation Yrotation Xrotation
											JOINT LeftHandThumbEnd
											{
												OFFSET 3.180790 -0.000002 0.000003
												CHANNELS 3 Zrotation Yrotation Xrotation
												End Site
												{
													OFFSET 0.000000 0.000000 0.000000
												}
											}
										}
									}
								}
								JOINT LeftHandIndex1
								{
									OFFSET 3.247552 -0.531998 2.296169
									CHANNELS 3 Zrotation Yrotation Xrotation
									JOINT LeftHandIndex2
									{
										OFFSET 6.364579 0.012062 0.178600
										CHANNELS 3 Zrotation Yrotation Xrotation
										JOINT LeftHandIndex3
										{
											OFFSET 3.662367 0.000001 -0.000000
											CHANNELS 3 Zrotation Yrotation Xrotation
											JOINT LeftHandIndex4
											{
												OFFSET 2.329242 0.000002 0.000004
												CHANNELS 3 Zrotation Yrotation Xrotation
												JOINT LeftHandIndexEnd
												{
													OFFSET 2.759619 -0.180539 -0.113024
													CHANNELS 3 Zrotation Yrotation Xrotation
													End Site
													{
														OFFSET 0.000000 0.000000 0.000000
													}
												}
											}
										}
									}
								}
								JOINT LeftHandMiddle1
								{
									OFFSET 3.163499 0.240982 1.000332
									CHANNELS 3 Zrotation Yrotation Xrotation
									JOINT LeftHandMiddle2
									{
										OFFSET 6.190778 -0.259276 -1.002549
										CHANNELS 3 Zrotation Yrotation Xrotation
										JOINT LeftHandMiddle3
										{
											OFFSET 4.356523 -0.000006 0.000001
											CHANNELS 3 Zrotation Yrotation Xrotation
											JOINT LeftHandMiddle4
											{
												OFFSET 2.996875 -0.000007 0.000001
												CHANNELS 3 Zrotation Yrotation Xrotation
												JOINT LeftHandMiddleEnd
												{
													OFFSET 2.304294 -0.294571 -0.031740
													CHANNELS 3 Zrotation Yrotation Xrotation
													End Site
													{
														OFFSET 0.000000 0.000000 0.000000
													}
												}
											}
										}
									}
								}
								JOINT LeftHandRing1
								{
									OFFSET 2.882642 -0.053650 -0.322543
									CHANNELS 3 Zrotation Yrotation Xrotation
									JOINT LeftHandRing2
									{
										OFFSET 5.854542 -0.486203 -1.373841
										CHANNELS 3 Zrotation Yrotation Xrotation
										JOINT LeftHandRing3
										{
											OFFSET 4.350581 0.000001 0.000004
											CHANNELS 3 Zrotation Yrotation Xrotation
											JOINT LeftHandRing4
											{
												OFFSET 2.651324 0.000007 0.000003
												CHANNELS 3 Zrotation Yrotation Xrotation
												JOINT LeftHandRingEnd
												{
													OFFSET 1.936111 0.077684 -0.000070
													CHANNELS 3 Zrotation Yrotation Xrotation
													End Site
													{
														OFFSET 0.000000 0.000000 0.000000
													}
												}
											}
										}
									}
								}
								JOINT LeftHandPinky1
								{
									OFFSET 2.865498 -0.310004 -1.600379
									CHANNELS 3 Zrotation Yrotation Xrotation
									JOINT LeftHandPinky2
									{
										OFFSET 5.087854 -1.331141 -1.771231
										CHANNELS 3 Zrotation Yrotation Xrotation
										JOINT LeftHandPinky3
										{
											OFFSET 3.070975 0.000003 0.000001
											CHANNELS 3 Zrotation Yrotation Xrotation
											JOINT LeftHandPinky4
											{
												OFFSET 1.549667 0.000000 0.000001
												CHANNELS 3 Zrotation Yrotation Xrotation
												JOINT LeftHandPinkyEnd
												{
													OFFSET 1.944895 -0.157802 0.057219
													CHANNELS 3 Zrotation Yrotation Xrotation
													End Site
													{
														OFFSET 0.000000 0.000000 0.000000
													}
												}
											}
										}
									}
								}
							}
						}
					}
				}
				JOINT RightShoulder
				{
					OFFSET -1.380118 23.180307 5.214158
					CHANNELS 3 Zrotation Yrotation Xrotation
					JOINT RightArm
					{
						OFFSET -15.037197 0.000012 -5.545604
						CHANNELS 3 Zrotation Yrotation Xrotation
						JOINT RightForeArm
						{
							OFFSET -28.736639 0.000003 -0.002598
							CHANNELS 3 Zrotation Yrotation Xrotation
							JOINT RightHand
							{
								OFFSET -27.133617 0.000000 0.002612
								CHANNELS 3 Zrotation Yrotation Xrotation
								JOINT RightHandThumb1
								{
									OFFSET -2.274037 -1.383990 3.163128
									CHANNELS 3 Zrotation Yrotation Xrotation
									JOINT RightHandThumb2
									{
										OFFSET -4.011428 -1.827468 1.640914
										CHANNELS 3 Zrotation Yrotation Xrotation
										JOINT RightHandThumb3
										{
											OFFSET -2.794934 -0.000003 -0.000003
											CHANNELS 3 Zrotation Yrotation Xrotation
											JOINT RightHandThumbEnd
											{
												OFFSET -3.183855 0.000003 0.000000
												CHANNELS 3 Zrotation Yrotation Xrotation
												End Site
												{
													OFFSET 0.000000 0.000000 0.000000
												}
											}
										}
									}
								}
								JOINT RightHandIndex1
								{
									OFFSET -3.253269 -0.520059 2.282866
									CHANNELS 3 Zrotation Yrotation Xrotation
									JOINT RightHandIndex2
									{
										OFFSET -6.341917 0.012473 0.178265
										CHANNELS 3 Zrotation Yrotation Xrotation
										JOINT RightHandIndex3
										{
											OFFSET -3.654875 -0.000009 -0.000000
											CHANNELS 3 Zrotation Yrotation Xrotation
											JOINT RightHandIndex4
											{
												OFFSET -2.327586 0.000000 0.000000
												CHANNELS 3 Zrotation Yrotation Xrotation
												JOINT RightHandIndexEnd
												{
													OFFSET -2.761789 -0.180657 -0.113079
													CHANNELS 3 Zrotation Yrotation Xrotation
													End Site
													{
														OFFSET 0.000000 0.000000 0.000000
													}
												}
											}
										}
									}
								}
								JOINT RightHandMiddle1
								{
									OFFSET -3.168107 0.246593 1.001030
									CHANNELS 3 Zrotation Yrotation Xrotation
									JOINT RightHandMiddle2
									{
										OFFSET -6.180830 -0.258836 -1.000896
										CHANNELS 3 Zrotation Yrotation Xrotation
										JOINT RightHandMiddle3
										{
											OFFSET -4.348904 -0.000001 -0.000001
											CHANNELS 3 Zrotation Yrotation Xrotation
											JOINT RightHandMiddle4
											{
												OFFSET -3.000243 -0.000004 -0.000002
												CHANNELS 3 Zrotation Yrotation Xrotation
												JOINT RightHandMiddleEnd
												{
													OFFSET -2.302518 -0.294371 -0.031706
													CHANNELS 3 Zrotation Yrotation Xrotation
													End Site
													{
														OFFSET 0.000000 0.000000 0.000000
													}
												}
											}
										}
									}
								}
								JOINT RightHandRing1
								{
									OFFSET -2.885693 -0.067952 -0.308858
									CHANNELS 3 Zrotation Yrotation Xrotation
									JOINT RightHandRing2
									{
										OFFSET -5.854196 -0.486132 -1.373732
										CHANNELS 3 Zrotation Yrotation Xrotation
										JOINT RightHandRing3
										{
											OFFSET -4.338814 -0.000003 -0.000000
											CHANNELS 3 Zrotation Yrotation Xrotation
											JOINT RightHandRing4
											{
												OFFSET -2.654906 -0.000004 0.000004
												CHANNELS 3 Zrotation Yrotation Xrotation
												JOINT RightHandRingEnd
												{
													OFFSET -1.933570 0.077523 -0.000052
													CHANNELS 3 Zrotation Yrotation Xrotation
													End Site
													{
														OFFSET 0.000000 0.000000 0.000000
													}
												}
											}
										}
									}
								}
								JOINT RightHandPinky1
								{
									OFFSET -2.866429 -0.342798 -1.584145
									CHANNELS 3 Zrotation Yrotation Xrotation
									JOINT RightHandPinky2
									{
										OFFSET -5.091370 -1.332054 -1.772385
										CHANNELS 3 Zrotation Yrotation Xrotation
										JOINT RightHandPinky3
										{
											OFFSET -3.062666 -0.000006 0.000000
											CHANNELS 3 Zrotation Yrotation Xrotation
											JOINT RightHandPinky4
											{
												OFFSET -1.546527 0.000005 -0.000003
												CHANNELS 3 Zrotation Yrotation Xrotation
												JOINT RightHandPinkyEnd
												{
													OFFSET -1.945122 -0.157721 0.057211
													CHANNELS 3 Zrotation Yrotation Xrotation
													End Site
													{
														OFFSET 0.000000 0.000000 0.000000
													}
												}
											}
										}
									}
								}
							}
						}
					}
				}
			}
		}
	}
	JOINT LeftLeg
	{
		OFFSET 10.043214 -8.434526 2.595655
		CHANNELS 3 Zrotation Yrotation Xrotation
		JOINT LeftShin
		{
			OFFSET -0.000001 -43.221752 -0.802913
			CHANNELS 3 Zrotation Yrotation Xrotation
			JOINT LeftFoot
			{
				OFFSET 0.000001 -42.155094 -3.481523
				CHANNELS 3 Zrotation Yrotation Xrotation
				JOINT LeftToeBase
				{
					OFFSET -0.000000 -5.059475 13.231529
					CHANNELS 3 Zrotation Yrotation Xrotation
					JOINT LeftToeEnd
					{
						OFFSET -0.009607 -1.647615 6.513017
						CHANNELS 3 Zrotation Yrotation Xrotation
						End Site
						{
							OFFSET 0.000000 0.000000 0.000000
						}
					}
				}
			}
		}
	}
	JOINT RightLeg
	{
		OFFSET -10.047277 -8.295259 2.620317
		CHANNELS 3 Zrotation Yrotation Xrotation
		JOINT RightShin
		{
			OFFSET 0.000001 -43.362209 -0.805556
			CHANNELS 3 Zrotation Yrotation Xrotation
			JOINT RightFoot
			{
				OFFSET 0.000002 -42.117393 -3.478399
				CHANNELS 3 Zrotation Yrotation Xrotation
				JOINT RightToeBase
				{
					OFFSET -0.000001 -5.079609 13.284196
					CHANNELS 3 Zrotation Yrotation Xrotation
					JOINT RightToeEnd
					{
						OFFSET 0.009532 -1.634383 6.460591
						CHANNELS 3 Zrotation Yrotation Xrotation
						End Site
						{
							OFFSET 0.000000 0.000000 0.000000
						}
					}
				}
			}
		}
	}
}
MOTION
Frames: 4
Frame Time: 0.033333
1.409191 98.690102 -5.542514 -2.549060 0.000546 -1.600983 2.399585 0.298430 0.808655 -0.092118 -0.389273 -5.192195 2.786526 -2.670894 15.412321 -2.878749 5.452363 19.191721 0.679133 5.209405 -3.443535 -7.833853 7.527856 7.314796 0.000077 -0.000023 0.000005 0.067724 -0.112283 -0.142567 0.844347 -3.847097 -10.669528 -0.724741 3.625144 -10.672579 23.597572 -19.575043 7.089903 -98.626305 -34.051239 -9.468965 178.803741 -31.367939 -179.570984 1.187886 -15.219834 -7.132661 -5.882100 9.861278 0.702590 -10.936858 -0.360575 7.156196 0.000000 8.774815 -0.000001 -16.562422 17.803591 5.944415 -1.844031 2.498503 -2.507277 -10.163587 4.678940 4.621105 -20.975990 -0.000004 0.000003 -21.226248 2.451693 -3.593993 0.000000 -0.000006 0.000000 -1.362680 2.240796 -0.746322 -21.334887 0.584908 3.008320 -13.821193 -0.000002 0.000002 -23.887123 -0.249078 -0.839479 -61.478939 2.132433 -1.541975 -0.294024 1.679686 0.833255 -14.218189 0.093214 1.300580 -34.211998 -0.287561 0.967171 -20.033175 0.964536 1.212843 0.000000 0.000000 0.000000 -3.440385 0.788232 0.501654 -15.928164 -3.167307 2.999705 -6.338814 -0.000001 0.000002 -18.123411 3.648178 -4.905662 -0.000007 0.000000 -0.000003 -15.876306 26.811575 5.649947 101.570061 42.272808 12.250756 179.475723 38.330635 179.816696 -6.720242 9.612322 -12.033206 2.243540 -5.255033 -3.180155 14.282875 -0.826593 6.952497 -0.000002 -12.690591 0.000000 16.695070 -18.520906 3.267562 1.665665 -1.955920 -2.878298 4.727794 -4.170583 4.993918 11.020513 0.000003 -0.000002 12.109032 -3.735710 -2.866782 -0.000001 0.000001 -0.000001 1.291984 -1.928548 -1.498090 14.800113 0.567467 3.865605 14.242551 -1.341735 -6.660649 19.631939 0.143926 -0.648243 50.865635 -1.059065 -5.831720 0.353028 -1.511150 -0.031940 20.222767 3.684306 2.316628 18.787245 0.000005 -0.000000 10.751610 -0.479866 1.397904 -0.000001 -0.000001 0.000000 3.273804 0.305947 -0.580113 21.486788 11.830363 2.266132 8.162916 0.000001 0.000000 18.399052 -3.798980 -4.940567 0.000003 0.000000 -0.000001 15.193423 21.680725 -11.255381 -0.227795 -0.768141 13.231993 -14.115084 -8.421600 7.226279 1.664083 -1.830788 -1.991621 -0.000000 0.000000 0.000002 -4.468002 -8.523976 0.270191 0.004905 0.285315 12.723056 7.179078 4.188519 -9.190208 -1.434742 0.927497 -1.081852 0.000000 0.000000 -0.000001 
1.476045 98.693260 -5.575449 -2.482436 -0.074590 -1.582736 2.378879 0.272092 0.796862 -0.061053 -0.436071 -5.209576 2.807899 -2.585737 15.398485 -2.871091 5.375299 19.144699 0.703731 5.255984 -3.417630 -7.913707 7.641209 7.295594 0.000077 -0.000023 0.000006 0.073978 -0.110325 -0.124278 0.852615 -3.854247 -10.660163 -0.711149 3.631153 -10.673752 23.804945 -19.612350 7.006892 -98.826836 -34.022030 -9.213701 178.714218 -31.161226 -179.513565 1.264314 -15.199981 -7.359056 -5.882102 9.861278 0.702589 -10.936860 -0.360575 7.156197 -0.000000 8.774813 -0.000001 -16.522526 17.824139 5.995975 -1.844031 2.498502 -2.507277 -10.163591 4.678939 4.621103 -20.975994 -0.000003 0.000004 -21.226255 2.451693 -3.593995 0.000001 -0.000006 -0.000000 -1.362680 2.240796 -0.746321 -21.334896 0.584909 3.008321 -13.821197 -0.000002 0.000002 -23.887133 -0.249077 -0.839481 -61.403976 2.092126 -1.490014 -0.294025 1.679686 0.833255 -14.218194 0.093215 1.300579 -34.211998 -0.287563 0.967171 -20.033176 0.964535 1.212842 -0.000000 0.000001 0.000000 -3.440387 0.788233 0.501655 -15.928169 -3.167305 2.999703 -6.338817 -0.000001 0.000001 -18.123413 3.648176 -4.905661 -0.000007 0.000000 -0.000003 -15.941320 26.909180 5.751032 101.717255 42.377045 12.241347 179.354645 38.187294 179.766251 -6.849157 9.626820 -12.069831 2.243540 -5.255033 -3.180156 14.282873 -0.826591 6.952495 -0.000004 -12.690591 -0.000002 16.613338 -18.479195 3.356215 1.665665 -1.955920 -2.878297 4.727793 -4.170582 4.993918 11.020511 0.000003 -0.000001 12.109033 -3.735710 -2.866779 -0.000000 0.000001 -0.000002 1.291984 -1.928548 -1.498089 14.800111 0.567469 3.865602 14.242553 -1.341733 -6.660646 19.631939 0.143927 -0.648241 50.856533 -1.054655 -5.799153 0.353028 -1.511149 -0.031940 20.222769 3.684308 2.316628 18.787245 0.000004 0.000001 10.751610 -0.479868 1.397904 -0.000001 0.000001 -0.000002 3.273804 0.305947 -0.580112 21.486790 11.830361 2.266129 8.162916 0.000003 0.000000 18.399054 -3.798977 -4.940566 0.000003 -0.000001 -0.000000 15.088763 21.612061 -11.346875 -0.228452 -0.714919 13.397960 -13.956463 -8.310352 7.172369 1.663019 -1.855454 -2.000843 0.000000 -0.000000 0.000002 -4.584719 -8.506769 0.147512 -0.007440 0.238157 12.859261 7.216572 4.320254 -9.181230 -1.437184 0.910293 -1.254534 -0.000000 -0.000000 -0.000001 
1.555046 98.671722 -5.607315 -2.422888 -0.017370 -1.569551 2.364962 0.270899 0.759558 -0.048810 -0.474388 -5.236848 2.830391 -2.515899 15.387379 -2.833105 5.274433 19.083033 0.752653 5.268985 -3.400651 -7.954498 7.745330 7.345401 0.000077 -0.000023 0.000006 0.085345 -0.132665 -0.138633 0.864057 -3.879965 -10.664165 -0.691622 3.614586 -10.674644 23.996399 -19.683321 6.923836 -98.902824 -33.993279 -9.092819 178.678207 -30.932428 -179.508469 1.356685 -15.161555 -7.457334 -5.882101 9.861278 0.702590 -10.936858 -0.360574 7.156196 0.000000 8.774811 0.000001 -16.468929 17.807026 6.024901 -1.844031 2.498502 -2.507276 -10.163589 4.678940 4.621106 -20.975994 -0.000003 0.000002 -21.226255 2.451693 -3.593993 0.000001 -0.000006 0.000001 -1.362680 2.240796 -0.746324 -21.334887 0.584909 3.008319 -13.821197 -0.000003 0.000000 -23.887131 -0.249077 -0.839481 -61.394814 2.104038 -1.471799 -0.294024 1.679685 0.833254 -14.218190 0.093215 1.300580 -34.212002 -0.287562 0.967169 -20.033180 0.964535 1.212842 0.000000 0.000000 0.000000 -3.440386 0.788233 0.501654 -15.928167 -3.167306 2.999703 -6.338817 -0.000001 0.000002 -18.123415 3.648175 -4.905661 -0.000007 0.000002 -0.000001 -15.997851 26.920683 5.796164 101.819389 42.515949 12.154957 179.200729 38.163139 179.695145 -7.004396 9.698106 -12.356543 2.243540 -5.255032 -3.180155 14.282877 -0.826594 6.952499 -0.000003 -12.690588 0.000000 16.475986 -18.420267 3.433028 1.665665 -1.955920 -2.878298 4.727794 -4.170583 4.993918 11.020512 0.000002 -0.000001 12.109033 -3.735708 -2.866782 -0.000001 0.000001 -0.000002 1.291985 -1.928548 -1.498089 14.800113 0.567467 3.865604 14.242554 -1.341733 -6.660649 19.631937 0.143925 -0.648244 50.805523 -1.038891 -5.815085 0.353029 -1.511149 -0.031940 20.222771 3.684305 2.316626 18.787249 0.000006 -0.000001 10.751610 -0.479867 1.397903 -0.000000 0.000001 -0.000001 3.273805 0.305947 -0.580112 21.486792 11.830362 2.266129 8.162916 0.000002 0.000000 18.399054 -3.798977 -4.940567 0.000002 0.000000 0.000000 14.947056 21.603670 -11.509768 -0.228662 -0.688900 13.603647 -13.814524 -8.296597 7.046243 1.663318 -1.873574 -1.999105 0.000000 -0.000000 0.000002 -4.704191 -8.566850 0.036152 -0.017878 0.213800 13.036939 7.216299 4.489640 -9.278443 -1.437336 0.902241 -1.342907 -0.000000 -0.000000 -0.000001 
1.583716 98.624855 -5.538856 -2.396498 0.100642 -1.546219 2.372440 0.265004 0.709806 -0.043120 -0.473031 -5.248509 2.852411 -2.492690 15.343155 -2.795126 5.186100 18.997805 0.802563 5.277606 -3.392611 -7.980013 7.809994 7.416451 0.000077 -0.000022 0.000006 0.095756 -0.150503 -0.131134 0.866998 -3.887658 -10.655363 -0.685646 3.601557 -10.668269 24.167421 -19.718004 6.802141 -98.922501 -33.943993 -9.106532 178.738846 -30.732306 -179.524231 1.481900 -15.074643 -7.529387 -5.882100 9.861279 0.702587 -10.936856 -0.360575 7.156196 0.000001 8.774814 -0.000001 -16.390797 17.733953 6.054294 -1.844030 2.498502 -2.507275 -10.163587 4.678938 4.621104 -20.975992 -0.000005 0.000004 -21.226246 2.451691 -3.593992 -0.000001 -0.000006 -0.000001 -1.362680 2.240796 -0.746323 -21.334887 0.584908 3.008322 -13.821197 -0.000003 0.000002 -23.887123 -0.249077 -0.839479 -61.298779 2.125762 -1.435484 -0.294025 1.679686 0.833256 -14.218190 0.093214 1.300578 -34.211998 -0.287566 0.967171 -20.033178 0.964534 1.212841 0.000000 0.000000 0.000000 -3.440385 0.788232 0.501654 -15.928165 -3.167307 2.999703 -6.338816 -0.000001 0.000001 -18.123413 3.648176 -4.905662 -0.000008 0.000000 -0.000001 -16.083481 26.895554 5.749312 101.919380 42.634735 11.998844 179.067139 38.158646 179.595551 -7.184321 9.762783 -12.794530 2.243540 -5.255033 -3.180155 14.282877 -0.826594 6.952493 -0.000002 -12.690588 -0.000001 16.399328 -18.382862 3.491004 1.665665 -1.955920 -2.878298 4.727795 -4.170583 4.993918 11.020513 0.000002 -0.000001 12.109034 -3.735710 -2.866779 -0.000000 0.000001 -0.000002 1.291985 -1.928548 -1.498088 14.800114 0.567466 3.865604 14.242554 -1.341735 -6.660650 19.631939 0.143925 -0.648245 50.874542 -1.057483 -5.788807 0.353029 -1.511149 -0.031942 20.222769 3.684304 2.316628 18.787247 0.000004 0.000001 10.751613 -0.479869 1.397905 -0.000000 0.000001 -0.000001 3.273804 0.305946 -0.580112 21.486788 11.830360 2.266131 8.162916 0.000002 -0.000001 18.399052 -3.798980 -4.940567 0.000003 -0.000001 -0.000001 14.876680 21.667564 -11.659561 -0.222017 -0.675421 13.848871 -13.773046 -8.462375 6.812649 1.661731 -1.886240 -1.998852 0.000000 -0.000000 0.000002 -4.758538 -8.626855 0.032415 -0.023626 0.197705 13.135741 7.235950 4.583861 -9.570553 -1.438035 0.904928 -1.380994 -0.000000 -0.000000 -0.000001 
